# xmcd
#
# Track frame offsets:
#	150
#	18262
#	29954
#	40987
#	50637
#	59934
#	75503
#	86782
#	98171
#	119929
#	131444
#	151489
#	164023
#	181817
#	195747
#	208027
#	217536
#	230960
#	242309
#	252007
#	267065
#	281043
#	307171
#
# Disc length: 4141 seconds
# Revision: 0
# Processed by: cddbd v1.5.2PL0 Copyright (c) Steve Scherf et al.
# Submitted via: dBpowerAMP V12.0
#
DISCID=57102b17
DTITLE=Dr. Feelgood - Taking No Prisoners (With Gypie 1977-1981)
DYEAR=2013
DGENRE=British R&B
TTITLE0=Riot In Cell Block No.9 (Live - As It Happens EP)
TTITLE1=Blues Had A Baby (And They Named It Rock 'n' Roll) (Live - As It Happens EP)
TTITLE2=Lights Out (Live - As It Happens EP)
TTITLE3=Great Balls Of Fire (Live - As It Happens EP)
TTITLE4=Looking Back (Live At The Pavillion, Hemel Hempstead Oct 1978)
TTITLE5=Going Back Home (Live At The Pavillion, Hemel Hempstead Oct 1978)
TTITLE6=Stupidity (Live At The Pavillion, Hemel Hempstead Oct 1978)
TTITLE7=I Thought I Had It Made (Live At The Pavillion, Hemel Hempstead Oct 1978)
TTITLE8=Shotgun Blues (Live At The Pavillion, Hemel Hempstead Oct 1978)
TTITLE9=Roxette (Live At The Pavillion, Hemel Hempstead Oct 1978)
TTITLE10=Johnny B. Goode (Live At The Pavillion, Hemel Hempstead Oct 1978)
TTITLE11=Drives Me Wild (Live At Manchester University)
TTITLE12=Java Blue (Live At Manchester University)
TTITLE13=Jumping From Love To Love (Live At Manchester University)
TTITLE14=Pretty Face (Live At Manchester University)
TTITLE15=No Mo Do Yakamo (Live At Manchester University)
TTITLE16=Love Hound (Live At Manchester University)
TTITLE17=Best In The World (Live At Manchester University)
TTITLE18=Who's Winning (Live At Manchester University)
TTITLE19=Riding On The L and N (Live At Manchester University)
TTITLE20=A Case Of The Shakes (Live At Manchester University)
TTITLE21=Shotgun Blues (Live At Manchester University)
TTITLE22=Good Night Vienna (Live At Manchester University)
EXTD=
EXTT0=
EXTT1=
EXTT2=
EXTT3=
EXTT4=
EXTT5=
EXTT6=
EXTT7=
EXTT8=
EXTT9=
EXTT10=
EXTT11=
EXTT12=
EXTT13=
EXTT14=
EXTT15=
EXTT16=
EXTT17=
EXTT18=
EXTT19=
EXTT20=
EXTT21=
EXTT22=
PLAYORDER=
